<svg width="96" height="96" viewBox="0 0 96 96" fill="none" xmlns="http://www.w3.org/2000/svg"><defs><filter id="shadow" x="0" y="0" width="96" height="96" filterUnits="userSpaceOnUse"><feDropShadow dx="0" dy="8" stdDeviation="8" flood-opacity="0.14"/></filter><linearGradient id="planePurple" x1="38" y1="31" x2="63" y2="57" gradientUnits="userSpaceOnUse"><stop stop-color="#5B1E86"/><stop offset="1" stop-color="#7C2FA6"/></linearGradient><linearGradient id="planeGold" x1="56" y1="42" x2="67" y2="52" gradientUnits="userSpaceOnUse"><stop stop-color="#F7B733"/><stop offset="1" stop-color="#F59E0B"/></linearGradient></defs><g filter="url(#shadow)"><circle cx="48" cy="48" r="40" fill="#F7F3FF"/></g><g transform="rotate(-18 48 48)"><path d="M28 49.5L66 31.5C68.4 30.4 70.9 32.9 69.8 35.3L51.8 73.2C50.4 76.2 46.1 75.9 45.1 72.7L41.5 60.9C41.2 59.9 40.4 59.1 39.4 58.8L27.6 55.2C24.4 54.2 24.1 49.9 27.1 48.5L28 49.5Z" fill="url(#planePurple)"/><path d="M38 53L66 31.5C68.2 30.6 70.3 32.7 69.4 34.9L51 49.7L38 53Z" fill="#6D28D9" fill-opacity="0.28"/><path d="M41.8 60.5L51.2 50.9" stroke="#E9D5FF" stroke-width="3" stroke-linecap="round"/><path d="M58.5 38.5L69 34C70.3 33.4 71.6 34.7 71 36L66.5 46.5L58.5 38.5Z" fill="url(#planeGold)"/><circle cx="61.2" cy="46.2" r="2.2" fill="#F7B733"/></g></svg>
