<svg viewBox="0 0 96 96" xmlns="http://www.w3.org/2000/svg"><rect width="96" height="96" rx="22" fill="#111"/><path d="M50 18v34.5c0 7.3-5.7 13-13 13-4.6 0-8.7-2.4-11-6 2 6.7 8.2 11.4 15.4 11.4 9 0 16.3-7.3 16.3-16.3V31.5c3.5 2.6 7.8 4.1 12.6 4.1v-8c-4.4 0-8.5-1.6-11.7-4.6-2.5-2.3-4.1-4.7-4.6-5z" fill="#25F4EE"/><path d="M53 15c.2 2.4 1.7 4.9 4.2 7 3.3 3 7.4 4.6 11.8 4.6v8c-4.8 0-9.1-1.5-12.6-4.1v23.1c0 9-7.3 16.3-16.3 16.3-7.2 0-13.4-4.7-15.4-11.4 2.3 3.6 6.4 6 11 6 7.3 0 13-5.7 13-13V15h4.3z" fill="#FE2C55"/><path d="M52 14v33.4c0 6.7-5.4 12.1-12.1 12.1S27.8 54.1 27.8 47.4s5.4-12.1 12.1-12.1c1.3 0 2.6.2 3.8.6v-8.2c-1.2-.3-2.5-.4-3.8-.4-11.2 0-20.3 9.1-20.3 20.3S28.7 67.9 39.9 67.9s20.3-9.1 20.3-20.3V27.5c3.6 2.6 8 4.1 12.8 4.1v-8c-7.6 0-14.3-6.7-14.3-12.6H52z" fill="white"/></svg>
