<svg width="96" height="96" viewBox="0 0 96 96" fill="none" xmlns="http://www.w3.org/2000/svg"><defs><linearGradient id="uploadBg" x1="16" y1="14" x2="78" y2="82" gradientUnits="userSpaceOnUse"><stop stop-color="#8B5CF6"/><stop offset="1" stop-color="#C084FC"/></linearGradient><filter id="shadow" x="0" y="0" width="96" height="96" filterUnits="userSpaceOnUse"><feDropShadow dx="0" dy="8" stdDeviation="8" flood-opacity="0.14"/></filter></defs><g filter="url(#shadow)"><circle cx="48" cy="48" r="40" fill="#F7F3FF"/></g><rect x="28" y="22" width="30" height="40" rx="7" fill="url(#uploadBg)"/><path d="M52 22V31C52 33.7614 54.2386 36 57 36H66" fill="#E9D5FF"/><path d="M58 22L66 30V36H58C55.7909 36 54 34.2091 54 32V22H58Z" fill="#DDD6FE"/><rect x="34" y="40" width="18" height="3.5" rx="1.75" fill="white" fill-opacity="0.95"/><rect x="34" y="47" width="14" height="3.5" rx="1.75" fill="white" fill-opacity="0.85"/><rect x="34" y="54" width="11" height="3.5" rx="1.75" fill="white" fill-opacity="0.75"/><circle cx="62" cy="60" r="14" fill="#ffffff"/><path d="M62 67V55" stroke="#6D28D9" stroke-width="3.5" stroke-linecap="round"/><path d="M56.5 60.5L62 55L67.5 60.5" stroke="#6D28D9" stroke-width="3.5" stroke-linecap="round" stroke-linejoin="round"/><rect x="54" y="68.5" width="16" height="3.5" rx="1.75" fill="#6D28D9"/></svg>
